<svg xmlns="http://www.w3.org/2000/svg" xmlns:xlink="http://www.w3.org/1999/xlink" version="1.1" x="0px" y="0px" width="225px" height="225px" viewBox="0 0 225 225" enable-background="new 0 0 225 225" xml:space="preserve" id="blue-avatar">
	<circle fill="#0591C8" cx="112.5" cy="112.5" r="112.2"/>
	<path fill="#1E1B1C" d="M159.864 164.473c-0.032-0.031-0.081-0.061-0.12-0.091l0.203-0.311l-60.522-10.232l-53.76-22.731 l0.001 0.006c-0.125-0.012-0.247-0.028-0.382-0.013c-3.158 0.369-7.32 6.855-7.401 15.063c-0.071 6.8 5.5 9.9 10.2 11.2 c0.185 0 0.4 0.1 0.5 0.058l8.458 1.715c-5.03 9.194-7.74 16.282-7.74 16.282l0.034 0 c-0.09 0.271-0.166 0.567-0.221 0.903c-0.516 3.2 5.8 10.6 14.8 13.604c7.503 2.5 16.8 1 18.28-2.703 c0.009-0.022 0.011-0.046 0.019-0.069l0.023 0.009l2.031-5.216c2.688 1.3 5.5 2.4 8.4 3.1 c2.692 0.7 5.1 1.3 7.4 1.792c-0.485 1.83-0.966 3.914-1.473 6.441c-0.15 0.49-0.253 1.035-0.29 1.7 c-0.363 6.1 9.8 10.6 20.9 10.285c8.651-0.214 14.67-4.517 15.114-7.576c0.044-0.3-0.004-0.596-0.096-0.888l0.114 0 c0 0-0.117-7.123 0.426-11.734l9.521 2.918l0.032-0.05c3.042 1.5 7.3 1.8 12.063-5.035 C161.614 175.3 162.3 166.8 159.9 164.473z"/>
	<path fill="#333333" d="M69.119 142.927c-1.621 5.847-2.374 16.022-2.184 19.229c-0.141 2.2 1.2 4.4 3.4 5.3 c3.923 2.5 11.7 5.6 21 8.299c11.571 3.4 21.7 4.9 24.9 3.947c1.45-0.327 2.719-1.238 3.455-2.544 c1.834-2.604 3.967-7.612 5.616-13.57C127.651 155 70.9 136.6 69.1 142.927z"/>
	<path fill="#DA3F78" d="M209.775 69.14c-0.476-8.749-32.279-24.439-73.313-35.898c-34.837-9.729-65.572-13.4-77.086-9.859 c-1.407 0.345-2.76 0.859-4.02 1.546c-6.283 1.667-16.326 22.113-23.397 48.293c-4.937 18.276-7.214 34.863-6.58 44.8 c-0.356 7 3.9 13.6 10.6 16.19c12.101 7.4 36 16.8 64.2 24.7c35.235 9.8 66 14.2 76.1 11.2 c4.455-1.023 8.363-3.856 10.662-7.897c5.621-8.118 12.17-23.868 17.209-42.523C210.188 97.2 212.2 77.2 209.8 69.14z"/>
	<path fill="#90CECF" d="M196.469 79.376c-0.581-6.97-28.626-20.032-64.656-29.902c-30.307-8.299-56.98-11.794-67.18-9.324 c-0.024 0.005-0.049 0.012-0.073 0.017c-0.062 0.015-0.13 0.028-0.191 0.044c-1.233 0.249-2.417 0.637-3.514 1.2 c-5.452 1.226-13.838 17.3-19.526 37.983c-3.971 14.441-5.654 27.589-4.923 35.494c-0.187 5.6 3.6 10.9 9.5 13.1 c10.706 6.1 31.7 14 56.5 20.815c30.973 8.5 57.9 12.5 66.7 10.313c3.856-0.738 7.203-2.916 9.129-6.078 c4.759-6.354 10.187-18.764 14.241-33.513C197.344 101.7 198.8 85.8 196.5 79.376z"/>
	<circle fill="#333333" cx="136.5" cy="124.4" r="20.6"/>
	<path fill="#DA3F78" d="M138.264 113.606c-0.637-0.092-1.283-0.138-1.923-0.138c-6.586 0-12.263 4.924-13.202 11.5 c-0.512 3.5 0.4 7 2.5 9.904c2.138 2.9 5.3 4.7 8.8 5.219c0.637 0.1 1.3 0.1 1.9 0.1 c6.582 0 12.255-4.922 13.196-11.449C150.625 121.4 145.6 114.7 138.3 113.606z"/>
	<path fill="#FFFFFF" d="M137.836 116.579c-0.496-0.071-0.999-0.107-1.495-0.107c-5.103 0-9.5 3.816-10.229 8.9 c-0.396 2.7 0.3 5.5 2 7.675s4.077 3.6 6.8 4.046c0.496 0.1 1 0.1 1.5 0.1 c5.099 0 9.493-3.815 10.224-8.875C147.416 122.7 143.5 117.4 137.8 116.579z"/>
	<path fill="#333333" d="M98.04 114.046c-2.502 11.104-13.532 18.081-24.64 15.58c-11.107-2.5-18.085-13.531-15.586-24.636 c2.5-11.108 13.533-18.086 24.643-15.586C93.561 91.9 100.5 102.9 98 114.046z"/>
	<path fill="#DA3F78" d="M88.332 103.78c-2.184-2.807-5.331-4.595-8.862-5.036c-0.551-0.069-1.111-0.104-1.664-0.104 c-6.696 0-12.37 5.017-13.199 11.67c-0.911 7.3 4.3 14 11.6 14.865c0.55 0.1 1.1 0.1 1.7 0.1 c6.698 0 12.373-5.018 13.2-11.669C91.475 110.1 90.5 106.6 88.3 103.78z"/>
	<path fill="#FFFFFF" d="M79.108 101.647c-0.432-0.054-0.87-0.081-1.301-0.081c-5.222 0-9.648 3.915-10.295 9.1 c-0.71 5.7 3.3 10.9 9 11.599c0.43 0.1 0.9 0.1 1.3 0.081c5.224 0 9.65-3.915 10.296-9.105 c0.346-2.756-0.402-5.479-2.105-7.669S81.863 102 79.1 101.647z"/>
	<polygon fill="#DA3F78" points="129.2,43.3 142.3,58.1 146.8,51 156.8,66.7 158.9,57.3 168.8,76.7 174.3,68 179.6,91.9 184.6,78.2 187.1,107.8 194.4,90.3 197.8,122.1 200.9,69.4 144.1,44.1"/>
	<path fill="#383B3B" d="M75.821 112.09c-0.363 1.62-1.974 2.637-3.591 2.272c-1.619-0.364-2.636-1.973-2.269-3.593 c0.362-1.615 1.97-2.634 3.589-2.271C75.167 108.9 76.2 110.5 75.8 112.09z"/>
	<path fill="#383B3B" d="M133.952 126.861c-0.364 1.616-1.976 2.633-3.592 2.27c-1.621-0.363-2.634-1.972-2.27-3.589 c0.362-1.617 1.971-2.638 3.591-2.275C133.299 123.6 134.3 125.2 134 126.861z"/>
</svg>