<svg xmlns="http://www.w3.org/2000/svg" xmlns:xlink="http://www.w3.org/1999/xlink" version="1.1" x="0px" y="0px" width="225px" height="225px" viewBox="0 0 225 225" enable-background="new 0 0 225 225" xml:space="preserve" id="pink-avatar">
	<circle fill="#D93F78" cx="112.8" cy="113" r="112.2"/>
	<path fill="#60A2D4" d="M169.065 157.329c-0.037-0.023-0.091-0.041-0.134-0.062l0.125-0.336l-115.026-6.876 c-0.042 0.002-0.087 0.018-0.13 0.021l-0.05 0.009l0 0.001c-0.119 0.016-0.237 0.025-0.361 0.1 c-2.912 1.024-5.468 8.053-3.798 15.838c1.391 6.5 7.3 8.2 12 8.389c0.186 0 0.35-0.015 0.496-0.057l8.37-0.178 c-2.803 9.773-3.857 17.061-3.857 17.061l0.035 0.004c-0.027 0.277-0.036 0.573-0.017 0.902c0.188 3.1 7.7 8.8 16.9 9.7 c7.64 0.8 16.149-2.604 16.729-6.455c0.004-0.023 0-0.049 0.003-0.072l0.023 0.002l0.812-5.369c2.82 0.6 5.7 1 8.7 1.2 c2.689 0.1 5.1 0.1 7.4 0.129c-0.069 1.83-0.08 3.9-0.021 6.393c-0.039 0.5-0.021 1 0.1 1.6 c0.944 5.8 11.6 7.9 22 5.282c8.145-2.048 12.922-7.402 12.692-10.396c-0.022-0.292-0.131-0.561-0.279-0.818l0.108-0.015 c0 0-1.63-6.716-2.1-11.198l9.638 0.734l0.021-0.055c3.194 0.7 7.3 0.2 10.343-7.339 C173.04 167.2 171.8 159 169.1 157.329z"/>
	<path fill="#90B8E0" d="M134.481 148.073c-0.632-2.656-11.607-5.399-25.187-6.224c-11.668-0.71-21.586 0.218-24.737 2.1 c-0.357 0.188-0.699 0.4-1.001 0.661c-0.425 0.227-0.843 0.771-1.241 1.584c-0.007 0.014-0.014 0.026-0.021 0 c-1.3 2.691-2.37 8.205-2.685 14.627c-0.288 5.9 0.1 11.1 1 14.052c0.343 2.2 2.1 3.9 4.3 4.3 c4.238 1.5 12.3 2.8 21.6 3.381c11.926 0.7 21.976-0.022 24.601-1.682c1.144-0.604 2.04-1.605 2.47-2.837 c1.221-2.81 2.211-8.111 2.511-14.243C136.498 156.6 135.8 150.4 134.5 148.073z"/>
	<path fill="#0491C9" d="M195.99 56.441c-0.58-2.032-3.063-4.057-7.129-5.986c-0.029-0.014-0.057-0.029-0.086-0.042 c-12.336-5.815-38.889-10.746-69.833-12.32c-34.714-1.767-64.345 1.234-74.766 6.932c-0.048 0.023-0.093 0.05-0.141 0.1 c-0.043 0.024-0.091 0.047-0.133 0.071c-1.272 0.63-2.456 1.413-3.512 2.341c-5.59 2.927-10.733 24.417-11.849 50.7 c-0.778 18.4 0.6 34.5 3.3 43.802c1.157 6.7 6.6 12 13.4 13.074c13.041 4.5 37.6 8.3 66 9.7 c35.393 1.8 65.364-0.649 74.406-5.586c4.022-1.914 7.138-5.438 8.456-9.77c3.593-8.883 6.435-25.187 7.228-43.92 C202.358 82.9 200 63.6 196 56.441z"/>
	<path fill="#90B8E0" d="M185.579 68.976c-0.503-1.602-2.665-3.198-6.202-4.719c-0.044-0.019-0.086-0.04-0.13-0.058 c-10.82-4.602-34.106-8.503-61.242-9.749c-30.461-1.398-56.458 0.978-65.586 5.491c-0.003 0.001-0.006 0.003-0.009 0 c-0.076 0.037-0.159 0.074-0.232 0.111c-1.11 0.498-2.144 1.114-3.066 1.845c-4.903 2.316-9.417 19.322-10.394 40.1 c-0.682 14.5 0.5 27.3 2.9 34.641c1.005 5.3 5.7 9.5 11.8 10.368c11.436 3.5 33 6.5 57.9 7.7 c31.098 1.4 57.423-0.52 65.303-4.439c3.509-1.521 6.225-4.305 7.375-7.721c3.147-7.031 5.639-19.93 6.335-34.748 C191.162 89.9 189.1 74.6 185.6 68.976z"/>
	<circle fill="#FFFFFF" cx="141.9" cy="118.1" r="20"/>
	<path fill="#46527B" d="M152.489 115.14c-0.548-7.038-6.788-12.459-13.931-11.906c-3.451 0.27-6.592 1.867-8.84 4.5 c-2.249 2.631-3.338 5.981-3.067 9.434c0.526 6.7 6.2 11.9 12.9 11.944c0.001 0 0 0 0 0 c0.34 0 0.681-0.013 1.024-0.039c3.45-0.27 6.589-1.867 8.839-4.499C151.672 121.9 152.8 118.6 152.5 115.14z"/>
	<path fill="#1E1B1C" d="M139.585 106.108c-0.265 0-0.53 0.01-0.799 0.032c-2.676 0.209-5.108 1.447-6.852 3.5 c-1.743 2.039-2.587 4.636-2.377 7.313c0.407 5.2 4.8 9.3 10 9.258c0.264 0 0.529-0.011 0.797-0.031 c2.675-0.209 5.107-1.447 6.85-3.486c1.743-2.04 2.587-4.637 2.376-7.313C149.179 110.2 144.8 106.1 139.6 106.108z"/>
	<circle fill="#FFFFFF" cx="70.5" cy="115.2" r="20"/>
	<path fill="#46527B" d="M81.072 111.975c-0.693-7.091-6.927-12.343-14.159-11.64c-7.111 0.695-12.333 7.045-11.64 14.2 c0.651 6.7 6.2 11.7 12.9 11.701c0.42 0 0.846-0.021 1.272-0.062C76.539 125.4 81.8 119.1 81.1 111.975z"/>
	<path fill="#1E1B1C" d="M68.186 103.188c-0.327 0-0.657 0.016-0.989 0.048c-5.512 0.539-9.56 5.46-9.022 11 c0.536 5.5 5.4 9.6 11 9.021c5.511-0.536 9.559-5.457 9.024-10.971C77.665 107.1 73.4 103.2 68.2 103.188z"/>
	<path fill="#FFFFFF" d="M69.105 110.967c0 1.612-1.305 2.917-2.914 2.917c-1.61 0-2.915-1.305-2.915-2.917 c0-1.608 1.305-2.915 2.915-2.915C67.801 108.1 69.1 109.4 69.1 110.967z"/>
	<path fill="#FFFFFF" d="M140.52 113.884c0 1.607-1.306 2.916-2.915 2.916c-1.611 0-2.915-1.309-2.915-2.916 c0-1.61 1.304-2.917 2.915-2.917C139.214 111 140.5 112.3 140.5 113.884z"/>
</svg>