<svg xmlns="http://www.w3.org/2000/svg" xmlns:xlink="http://www.w3.org/1999/xlink" version="1.1" x="0px" y="0px" width="225px" height="225px" viewBox="0 0 225 225" enable-background="new 0 0 225 225" xml:space="preserve" id="purple-avatar">
	<circle fill="#8B3189" cx="112.7" cy="112.2" r="112.2"/>
	<path fill="#96C357" d="M163.346 157.634c-0.035-0.024-0.087-0.045-0.128-0.067l0.143-0.323L50.83 143.9 c-0.027 0-0.057 0.009-0.084 0.01l-0.088 0.009l0.001 0.002c-0.119 0.009-0.237 0.011-0.362 0 c-2.914 0.837-5.829 7.588-4.639 15.328c0.989 6.4 6.7 8.5 11.3 8.931c0.184 0 0.3 0 0.493-0.028l8.223 0.3 c-3.315 9.435-4.771 16.526-4.771 16.526l0.035 0.006c-0.042 0.271-0.068 0.562-0.068 0.887c0.005 3.1 7.1 9.1 16 10.5 c7.455 1.2 16.004-1.624 16.795-5.371c0.005-0.023 0.003-0.047 0.007-0.07l0.021 0.004l1.106-5.227 c2.731 0.8 5.6 1.4 8.4 1.639c2.645 0.3 5 0.4 7.2 0.545c-0.175 1.797-0.306 3.833-0.392 6.3 c-0.065 0.486-0.078 1.018-0.018 1.608c0.592 5.8 10.9 8.4 21.3 6.453c8.115-1.54 13.112-6.522 13.061-9.474 c-0.005-0.288-0.096-0.559-0.227-0.819l0.106-0.009c0 0-1.213-6.688-1.415-11.113l9.419 1.275l0.023-0.053 c3.093 0.9 7.2 0.6 10.577-6.607C166.674 167.6 166 159.5 163.3 157.634z"/>
	<path fill="#B4D284" d="M129.93 146.558c-0.454-2.645-11.077-5.974-24.367-7.567c-11.397-1.368-21.174-1.03-24.394 0.6 c-0.377 0.168-0.738 0.364-1.061 0.613c-0.418 0.205-0.847 0.701-1.271 1.449c-0.015 0.024-0.029 0.048-0.043 0.1 c-1.428 2.572-2.793 7.916-3.473 14.188c-0.62 5.753-0.509 10.9 0.2 13.856c0.213 2.1 1.8 3.9 4 4.4 c4.072 1.7 11.9 3.5 21.1 4.568c11.647 1.4 21.5 1.2 24.234-0.224c1.156-0.525 2.096-1.453 2.593-2.633 c1.362-2.682 2.645-7.84 3.294-13.854C131.414 155 131.1 148.9 129.9 146.558z"/>
	<path fill="#70B644" d="M195.595 60.149c-1.81-8.163-34.176-18.017-74.577-22.459c-33.983-3.736-63.249-2.499-73.803 2.5 c-0.039 0.016-0.076 0.036-0.116 0.052c-0.052 0.025-0.109 0.048-0.159 0.073c-1.285 0.545-2.492 1.246-3.583 2.1 C37.7 45 31.4 65.8 28.8 91.491c-1.823 17.984-1.401 34 0.7 43.207c0.755 6.6 5.7 12.2 12.4 13.6 c12.544 5.1 36.5 10.3 64.2 13.328c34.669 3.8 64.3 3.1 73.391-1.201c4.05-1.651 7.302-4.929 8.842-9.1 c4.038-8.514 7.766-24.353 9.627-42.693C200.321 86.5 199.2 67.4 195.6 60.149z"/>
	<path fill="#AFDADB" d="M184.652 71.852c-0.399-1.59-2.406-3.27-5.75-4.955c-0.071-0.036-0.141-0.075-0.213-0.109 c-10.366-5.139-32.987-10.308-59.539-13.094c-30.081-3.157-55.938-2.284-64.948 1.708c-1.118 0.424-2.168 0.97-3.115 1.6 c-4.947 1.995-10.355 18.428-12.515 38.784c-1.506 14.214-1.059 26.9 0.9 34.186c0.685 5.3 5.1 9.7 11 10.8 c11.024 4.1 32 8.3 56.4 10.873c30.445 3.2 56.4 2.8 64.361-0.593c3.533-1.289 6.36-3.866 7.687-7.154 c3.495-6.721 6.685-19.238 8.222-33.747C188.926 92.7 187.8 77.6 184.7 71.852z"/>
	<path fill="#FFFFFF" d="M158.602 118.723c-0.637 10.842-9.943 19.119-20.788 18.482c-10.846-0.638-19.124-9.947-18.487-20.79 c0.637-10.845 9.949-19.121 20.794-18.484S159.238 107.9 158.6 118.723z"/>
	<path fill="#0491C9" d="M138.769 105.016l-0.255 0.003c-7.024 0.136-12.628 5.964-12.491 13 c0.136 6.9 5.8 12.5 12.7 12.492l0.255-0.003c3.403-0.064 6.578-1.451 8.938-3.906c2.359-2.453 3.622-5.68 3.555-9.083 C151.373 110.6 145.7 105 138.8 105.016z"/>
	<path fill="#1E1B1C" d="M138.769 107.882l-0.199 0.002c-5.444 0.105-9.787 4.623-9.682 10.07c0.105 5.3 4.5 9.7 9.9 9.7 l0.199-0.002c2.639-0.051 5.099-1.125 6.927-3.027c1.829-1.902 2.808-4.402 2.756-7.041 C148.537 112.2 144.1 107.9 138.8 107.882z"/>
	<circle fill="#FFFFFF" cx="69" cy="110.6" r="19.7"/>
	<path fill="#0491C9" d="M69.474 97.041c-7.021 0.271-12.514 6.203-12.243 13.226c0.266 6.9 5.9 12.3 12.7 12.3 c0.166 0 0.333-0.003 0.5-0.01c7.021-0.271 12.513-6.203 12.241-13.225C82.428 102.2 76.6 96.8 69.5 97.041z"/>
	<path fill="#1E1B1C" d="M69.975 99.897c-0.13 0-0.261 0.003-0.391 0.008c-5.442 0.209-9.699 4.808-9.49 10.2 c0.212 5.5 4.8 9.7 10.3 9.49c5.442-0.211 9.699-4.809 9.489-10.25C79.63 104.1 75.3 99.9 70 99.897z"/>
	<circle fill="#FFFFFF" cx="68.2" cy="107.4" r="2.9"/>
	<path fill="#FFFFFF" d="M139.825 115.588c-0.092 1.577-1.45 2.785-3.029 2.693c-1.582-0.094-2.786-1.453-2.693-3.029 c0.094-1.58 1.448-2.787 3.029-2.694C138.712 112.7 139.9 114 139.8 115.588z"/>
</svg>